<?xml version="1.0" encoding="UTF-8"?>
<svg xmlns="http://www.w3.org/2000/svg" xmlns:xlink="http://www.w3.org/1999/xlink" width="82pt" height="44pt" viewBox="0 0 82 44" version="1.1">
<g id="surface1">
<path style=" stroke:none;fill-rule:nonzero;fill:rgb(0%,0%,40.784314%);fill-opacity:1;" d="M 45.601562 26.601562 L 45.601562 30.5 C 43.398438 31.601562 41.398438 32.101562 39.398438 32.101562 C 33.699219 32.101562 30.300781 28.800781 30.300781 24.601562 C 30.300781 20.101562 34.199219 16.300781 39.101562 16.300781 C 40.199219 16.300781 41.199219 16.5 42.199219 16.800781 C 42.898438 17 43.300781 17.300781 43.800781 17.300781 C 44.199219 17.300781 44.300781 16.699219 44.300781 16.300781 L 44.800781 16.300781 L 45.300781 21.5 L 44.601562 21.5 C 44.398438 20.601562 43.898438 19.699219 43.199219 19 C 42.101562 17.898438 40.699219 17.398438 39.199219 17.398438 C 35.800781 17.398438 33.800781 20.101562 33.800781 24.101562 C 33.800781 28.101562 36.199219 30.800781 39.5 30.800781 C 40.5 30.800781 41.5 30.5 42.398438 30.101562 L 42.398438 26.101562 C 42.398438 24.800781 42.199219 24.300781 40.398438 24.300781 L 40.398438 23.699219 L 47.199219 23.699219 L 47.199219 24.300781 C 45.601562 24.398438 45.601562 25 45.601562 26.601562 Z M 26.800781 20.199219 L 26.800781 31.800781 L 25.898438 31.800781 L 14.300781 19.800781 C 14.300781 20.101562 14.398438 20.398438 14.398438 20.699219 L 14.398438 28 C 14.398438 30.199219 14.398438 31 16.398438 31 L 16.398438 31.601562 L 11 31.601562 L 11 31 C 13.101562 31 13.101562 30 13.101562 28 L 13.101562 19.699219 C 13.101562 18.5 13.101562 17.101562 10.898438 17.101562 L 10.898438 16.5 L 16 16.5 L 25.5 26.300781 C 25.5 26 25.398438 25.800781 25.398438 25.5 L 25.398438 20.199219 C 25.398438 18.101562 25.5 17.101562 23.398438 17.101562 L 23.398438 16.5 L 28.800781 16.5 L 28.800781 17.101562 C 26.898438 17.199219 26.800781 18 26.800781 20.199219 Z M 0.5 31.699219 L 0.5 31.101562 C 1.800781 31.101562 2.699219 31 2.699219 29.101562 L 2.699219 19.199219 C 2.699219 17.199219 2 17.199219 0.5 17.199219 L 0.5 16.601562 L 8.199219 16.601562 L 8.199219 17.199219 C 6.601562 17.199219 6 17.199219 6 19.199219 L 6 29.101562 C 6 31 6.800781 31.101562 8.199219 31.101562 L 8.199219 31.699219 Z M 0.5 31.699219 "/>
<path style=" stroke:none;fill-rule:nonzero;fill:rgb(100%,100%,100%);fill-opacity:1;" d="M 74.300781 31.699219 C 74.699219 31.699219 75.101562 31.601562 75.398438 31.398438 L 76.101562 31.398438 C 77.398438 31.5 78.601562 31 79.5 30 C 80.800781 28.800781 81.601562 26.699219 81.601562 24.699219 C 81.601562 22.300781 80.601562 19.898438 78.898438 18.199219 C 78.101562 17.398438 77.300781 17.101562 76.699219 16.300781 C 76.398438 16 76.101562 15.601562 75.898438 15.199219 C 75.699219 15 75.398438 14.800781 75.101562 14.601562 L 74.699219 14.5 C 74.601562 14.398438 74.5 14.398438 74.398438 14.398438 C 73.5 14.300781 72.699219 14.699219 71.898438 14.898438 L 71.898438 15 C 72.398438 15.199219 72.5 15.800781 72.800781 16.101562 L 73.101562 16.5 C 73.5 16.898438 73.898438 17.199219 74.398438 17.398438 C 75.101562 17.5 75.699219 17.199219 76.398438 17.300781 C 78.898438 18.5 80.601562 21.300781 80.601562 24.101562 C 80.601562 28.101562 78.300781 29.699219 76.898438 29.699219 C 76.601562 29.699219 76.300781 29.601562 76 29.398438 C 76.199219 28.699219 76.300781 28 76.300781 27.199219 C 76.300781 24.898438 75.398438 22.398438 74.101562 21.101562 C 73.5 20.5 72.898438 20 72.199219 20 C 71.898438 20 71.5 20 71.300781 20.300781 C 71 20.5 70.898438 20.898438 70.898438 21.199219 C 70.398438 21.5 69.800781 21.699219 69.199219 21.699219 C 68.5 21.699219 67.699219 21.398438 67.199219 20.898438 L 67.199219 20.101562 L 67 19.800781 C 66.898438 19.398438 66.898438 19 66.699219 18.699219 L 66.5 18.300781 C 66.199219 17.699219 66.300781 17.398438 65.800781 16.398438 C 65.699219 15.898438 65.199219 15.601562 64.898438 15.300781 C 64.699219 15.199219 64.601562 14.699219 64.601562 14.699219 C 64.300781 14 64.101562 13.199219 63.398438 12.699219 L 63.199219 12.800781 L 62.800781 12.5 C 62.601562 12.300781 62.398438 12.300781 62.199219 12.300781 L 61.898438 12 C 61.601562 11.898438 61.199219 11.898438 60.898438 12 L 60.5 12.101562 C 60.300781 12.199219 60 12.300781 59.898438 12.300781 C 59.5 12.101562 59.101562 11.898438 58.699219 11.898438 L 58.300781 12 C 58 12 57.699219 12.101562 57.5 12.300781 C 57.5 12.300781 57 12.5 56.898438 12.5 C 56.800781 12.601562 56.601562 12.699219 56.5 12.800781 C 56.101562 13.101562 55.800781 13.398438 55.699219 13.898438 L 55.5 14.300781 L 55.5 15.101562 C 55.300781 15.300781 55.101562 15.5 55 15.699219 C 54.699219 16.601562 54.601562 17.601562 54.699219 18.601562 C 54.699219 18.800781 54.601562 18.898438 54.398438 18.898438 L 54.398438 19.699219 C 54.5 19.898438 54.5 20.199219 54.5 20.398438 C 54.5 20.601562 54.601562 20.800781 54.601562 21.101562 C 54.601562 21.199219 54.601562 21.300781 54.699219 21.300781 C 54.699219 21.199219 54.800781 21.800781 54.800781 21.800781 C 55 22.898438 55.300781 23.898438 55.800781 24.898438 C 55.398438 25.601562 54.898438 27 54.601562 28.300781 C 54.300781 28.101562 54 28 53.601562 28 C 53.300781 28 52.898438 28.199219 52.699219 28.5 C 52.398438 28.300781 52 28.398438 51.699219 28.601562 C 51.199219 29 51.199219 29.199219 51.199219 29.5 C 51 29.699219 50.898438 30 50.898438 30.300781 C 50.898438 30.699219 51 31.199219 51.199219 31.5 Z M 74.300781 31.699219 "/>
<path style=" stroke:none;fill-rule:nonzero;fill:rgb(100%,38.431373%,0%);fill-opacity:1;" d="M 60.601562 31.699219 C 60.398438 31.300781 60.300781 30.800781 60.300781 30.300781 C 60.300781 30 60.300781 29.699219 60.5 29.398438 L 59.898438 29.5 C 59.699219 29.699219 59.699219 29.800781 59.699219 29.898438 L 60 29.800781 C 60.101562 29.800781 60.101562 29.898438 60.199219 30 C 60.101562 30.300781 59.800781 30.300781 59.699219 30.398438 C 59.5 30.898438 60 31.300781 60.101562 31.699219 Z M 81.5 24.699219 C 81.5 22.300781 80.5 19.898438 78.800781 18.199219 C 78 17.398438 77.199219 17.101562 76.601562 16.300781 C 76.300781 16 76 15.601562 75.800781 15.199219 C 75.601562 15 75.300781 14.800781 75 14.601562 L 75.199219 15.101562 L 75.101562 15.101562 C 74.800781 15.101562 74.601562 15 74.300781 14.800781 L 74.5 14.601562 C 74.398438 14.5 74.300781 14.5 74.199219 14.5 C 73.300781 14.398438 72.5 14.800781 71.699219 15 L 71.699219 15.101562 C 72.199219 15.300781 72.300781 15.898438 72.601562 16.199219 L 73 16.199219 C 73.101562 16.199219 73.300781 16.300781 73.398438 16.300781 C 73.398438 16.199219 73.300781 16.101562 73.300781 16 C 73.398438 15.898438 73.5 15.898438 73.601562 16 C 73.898438 16.199219 74.300781 15.898438 74.5 16.300781 C 74.199219 16.300781 73.898438 16.300781 73.601562 16.5 C 73.601562 16.601562 73.800781 16.699219 73.699219 16.800781 C 73.398438 16.699219 73.101562 16.800781 73 16.601562 L 72.898438 16.601562 C 73.300781 17 73.699219 17.300781 74.199219 17.5 C 74.898438 17.601562 75.5 17.300781 76.199219 17.398438 C 78.699219 18.601562 80.398438 21.398438 80.398438 24.199219 C 80.398438 28.199219 78.101562 29.800781 76.699219 29.800781 C 76.398438 29.800781 76.101562 29.699219 75.800781 29.5 C 76 28.800781 76.101562 28.101562 76.101562 27.300781 C 76.101562 25 75.199219 22.5 73.898438 21.199219 C 73.300781 20.601562 72.699219 20.101562 72 20.101562 C 71.699219 20.101562 71.300781 20.101562 71.101562 20.398438 C 70.800781 20.601562 70.699219 21 70.699219 21.300781 C 70.199219 21.601562 69.601562 21.800781 69 21.800781 C 68.300781 21.800781 67.5 21.5 67 21 L 67 20.199219 C 66.800781 20.101562 66.300781 19.800781 66.601562 19.601562 C 66.699219 19.601562 66.800781 19.699219 66.898438 19.800781 C 66.800781 19.398438 66.800781 19 66.601562 18.699219 C 66.398438 18.699219 66.300781 18.699219 66.199219 18.601562 C 66 18.398438 65.898438 18.199219 65.898438 18 C 66.101562 18.300781 66.300781 18.199219 66.5 18.300781 C 66.199219 17.601562 66.300781 17.398438 65.800781 16.398438 C 65.699219 15.898438 65.199219 15.601562 64.898438 15.300781 C 64.699219 15.199219 64.699219 15 64.5 15 C 64.300781 14.898438 64.300781 14.699219 64.300781 14.5 C 64.398438 14.5 64.5 14.601562 64.601562 14.699219 C 64.300781 14 64.101562 13.199219 63.398438 12.699219 L 63.199219 12.800781 L 62.300781 12.800781 C 62.5 12.699219 62.601562 12.601562 62.800781 12.5 C 62.699219 12.300781 62.398438 12.300781 62.199219 12.300781 C 62 12.398438 61.800781 12.5 61.601562 12.5 L 61.5 12.5 C 61.5 12.300781 61.398438 12.101562 61.800781 12 C 61.5 11.898438 61.199219 11.898438 60.800781 12 C 60.699219 12.300781 60.601562 12.398438 60.601562 12.699219 C 60.398438 12.800781 60.398438 13 60.199219 13.101562 C 60.199219 12.800781 60.300781 12.398438 60.398438 12.101562 C 60.199219 12.199219 59.898438 12.300781 59.800781 12.300781 C 59.398438 12.101562 59 11.898438 58.601562 11.898438 C 58.898438 12.101562 58.800781 12.5 58.800781 12.800781 L 58.601562 12.699219 C 58.5 12.5 58.300781 12.300781 58.199219 12.101562 C 57.898438 12.101562 57.601562 12.199219 57.398438 12.398438 L 57.398438 12.5 C 57.601562 12.5 57.800781 12.699219 57.898438 12.800781 C 57.5 12.800781 57.199219 12.601562 56.898438 12.601562 C 56.898438 12.601562 56.898438 12.5 56.898438 12.5 C 56.699219 12.601562 56.601562 12.699219 56.5 12.800781 C 56.101562 13.101562 55.800781 13.398438 55.699219 13.898438 C 55.800781 13.898438 56 13.898438 56 14 C 55.800781 14.101562 55.699219 14.300781 55.5 14.398438 L 55.5 15.199219 C 55.300781 15.398438 55.101562 15.601562 55 15.898438 C 54.699219 16.800781 54.601562 17.800781 54.699219 18.800781 C 54.699219 18.898438 54.601562 19.101562 54.398438 19.101562 L 54.398438 19.898438 C 54.601562 19.800781 54.699219 19.601562 54.898438 19.5 L 54.898438 20.199219 C 54.699219 20.199219 54.5 20.5 54.5 20.601562 C 54.5 20.800781 54.601562 21 54.601562 21.300781 C 54.601562 21.398438 54.601562 21.5 54.699219 21.5 C 54.699219 21.398438 54.800781 21.300781 55 21.199219 C 55.101562 21.101562 55.199219 21.101562 55.300781 21.101562 C 55.199219 21.300781 55 21.5 54.898438 21.699219 L 54.699219 21.898438 C 54.699219 21.898438 54.699219 22 54.601562 22.101562 C 54.800781 23.199219 55.101562 24.199219 55.601562 25.199219 C 55.199219 25.898438 54.699219 27.300781 54.300781 28.601562 C 54 28.398438 53.699219 28.300781 53.300781 28.300781 C 53 28.300781 52.601562 28.5 52.398438 28.800781 C 52.101562 28.601562 51.699219 28.699219 51.398438 28.898438 C 50.898438 29.300781 50.898438 29.5 50.898438 29.800781 C 50.699219 30 50.601562 30.300781 50.601562 30.601562 C 50.601562 31 50.699219 31.5 50.898438 31.898438 L 59.101562 31.898438 C 59 31.699219 58.898438 31.601562 58.800781 31.398438 C 58.601562 31.101562 58.699219 30.601562 58.699219 30.300781 C 58.800781 30 59 29.699219 59.199219 29.398438 C 59.300781 29.199219 59.199219 29.199219 59.300781 29.199219 L 59.699219 29.101562 C 59.898438 29.101562 60.101562 28.898438 60.398438 28.898438 C 60.601562 29.101562 60.601562 28.699219 60.800781 28.601562 C 61.398438 28.5 61.898438 28.601562 62.300781 29 C 62.300781 29.101562 62.398438 29.101562 62.398438 29.101562 L 62.101562 29.101562 C 61.800781 29 61.398438 28.800781 61.101562 29 C 61.101562 29.101562 61 29.101562 61 29.300781 L 61 29.601562 C 61.199219 29.601562 61.398438 29.800781 61.601562 29.898438 C 61.699219 29.699219 62 29.601562 62.199219 29.601562 C 62.5 29.601562 62.800781 29.800781 62.898438 30.101562 L 62.898438 30.699219 C 63.101562 30.898438 63.398438 31 63.699219 31.101562 C 63.601562 31.300781 63.398438 31.398438 63.300781 31.300781 L 62.898438 31.300781 C 62.800781 31.199219 62.699219 31.199219 62.699219 31.101562 C 62.601562 31.300781 62.398438 31.5 62.300781 31.800781 L 68.601562 31.800781 C 68.5 31.601562 68.398438 31.398438 68.300781 31.300781 C 68.199219 30.898438 68.199219 30.601562 68.199219 30.199219 L 68.800781 29.398438 C 69.101562 29.398438 69.398438 29.300781 70 29.199219 C 70.101562 29 70 29 70.5 29 C 70.800781 29 71 29 71.300781 29.101562 C 71.398438 29.199219 71.398438 29.199219 71.300781 29.300781 C 71.199219 29.398438 71 29.199219 70.800781 29.199219 C 70.699219 29.300781 70.898438 29.398438 70.898438 29.5 C 71 29.601562 70.398438 29.398438 70.398438 29.398438 C 70.398438 29.398438 70.300781 29.699219 70.199219 29.800781 L 70.5 30.101562 C 70.601562 30.300781 70.300781 30.398438 70.300781 30.601562 C 70.199219 30.5 70 30.398438 70 30.398438 C 69.898438 30.800781 70 31.199219 69.898438 31.699219 L 70.5 31.699219 L 70.601562 30.800781 C 70.699219 30.300781 71.300781 29.300781 71.699219 29.300781 C 71.898438 29.300781 72.101562 29.398438 72.199219 29.5 C 72.300781 29.699219 72.601562 29.800781 72.601562 29.898438 C 72.601562 30 72.398438 30.101562 72.199219 30.101562 C 72.101562 30.101562 72.101562 29.898438 71.898438 29.800781 L 71.601562 30.101562 C 71.601562 30.101562 72 30.398438 72 30.601562 C 72 30.800781 71.898438 31 71.800781 31.101562 L 71.5 30.398438 C 71.300781 30.398438 71.101562 30.699219 71.101562 30.898438 C 71.101562 31.101562 71 31.199219 71 31.601562 L 74.300781 31.601562 C 74.699219 31.601562 75.101562 31.5 75.398438 31.300781 L 76 31.300781 C 77.300781 31.398438 78.5 30.898438 79.398438 29.898438 C 80.699219 28.800781 81.5 26.699219 81.5 24.699219 Z M 69.800781 29.601562 L 69.300781 29.699219 C 69.398438 29.800781 69.5 30 69.5 30.101562 C 69.5 30.300781 69.398438 30.398438 69.300781 30.5 C 69.199219 30.398438 69.199219 30.199219 69.101562 30.101562 C 69 30.101562 68.898438 30.398438 68.898438 30.5 C 68.898438 30.898438 69.101562 31.300781 69.300781 31.699219 L 69.800781 31.699219 C 69.699219 31.300781 69.699219 30.800781 69.601562 30.398438 C 69.601562 30.101562 69.699219 29.898438 69.800781 29.601562 Z M 62.699219 30.300781 C 62.699219 30.101562 62.5 30 62.300781 30 C 62.199219 30 61.898438 30.199219 61.898438 30.300781 C 61.898438 30.5 61.800781 31.699219 61.800781 31.699219 L 62.199219 31.699219 C 62.398438 31.199219 62.699219 30.601562 62.699219 30.300781 Z M 61.5 30.199219 C 61.398438 30.199219 61.601562 30.300781 61 29.800781 C 60.898438 29.800781 60.699219 30.101562 60.699219 30.199219 C 60.699219 30.699219 60.800781 31.199219 61 31.699219 L 61.398438 31.699219 C 61.5 31.199219 61.601562 30.699219 61.5 30.199219 Z M 75.699219 16.601562 C 75.601562 16.398438 75.398438 16.300781 75.199219 16.300781 C 75 16.101562 74.800781 15.800781 74.601562 15.800781 C 74.800781 15.800781 75 15.601562 75.199219 15.601562 C 75.300781 15.898438 75.5 16 75.601562 16.300781 Z M 74.101562 15.5 L 73.5 15.5 C 73.398438 15.300781 73.199219 15.5 73.101562 15.5 C 73 15.5 72.898438 15.5 72.699219 15.300781 C 73 15.300781 73.199219 15.101562 73.5 15 C 73.699219 15.199219 74 15.199219 74.101562 15.5 Z M 72.800781 21.601562 C 72.398438 21.5 72.199219 21.300781 71.898438 21.300781 C 71.699219 21.300781 71.398438 21.398438 71.199219 21.601562 C 71 21.398438 71.300781 20.898438 71.5 20.800781 C 71.601562 20.699219 71.800781 20.699219 71.898438 20.800781 C 71.898438 21.101562 72.300781 21 72.5 21.101562 C 72.699219 21.300781 72.800781 21.5 72.800781 21.601562 Z M 72.800781 22.398438 C 72.5 22.398438 72.398438 22.398438 72.199219 22.398438 C 71.898438 22.398438 71.601562 22.5 71.398438 22.800781 C 71.300781 22.699219 71.300781 22.5 71.398438 22.300781 C 71.601562 22.101562 71.800781 22 72.101562 21.898438 C 72.398438 21.898438 72.699219 22.101562 72.800781 22.398438 Z M 74 23.601562 C 73.601562 23.300781 73.101562 23.199219 72.5 23.199219 C 72.101562 23.300781 71.699219 23.398438 71.398438 23.699219 L 71.300781 23.199219 C 71.601562 23.101562 71.601562 22.898438 71.800781 22.898438 C 72 22.898438 72.199219 22.800781 72.300781 22.800781 C 72.5 22.800781 72.601562 22.699219 72.601562 22.699219 C 72.898438 22.699219 72.800781 23 72.898438 23 C 73.101562 23 73.199219 22.898438 73.300781 22.898438 C 73.699219 22.898438 74 23.300781 74 23.601562 Z M 74.199219 24.800781 C 73.800781 24.800781 73.398438 24.699219 73.398438 24.5 C 73.300781 24.398438 73.398438 24.199219 73.101562 24.199219 C 73 24.199219 72.800781 24.398438 72.800781 24.398438 C 72.699219 24.5 72.398438 24.199219 72.398438 24.398438 C 72.398438 24.699219 72.199219 24.800781 71.898438 24.800781 C 71.800781 24.800781 71.699219 24.800781 71.601562 24.699219 L 71.601562 24.199219 C 72.300781 24.199219 72.199219 24 72.601562 24 C 72.800781 24 73 24.101562 73.101562 24.101562 C 73.398438 24.101562 73.199219 24 73.5 24 C 73.800781 24 73.898438 24.199219 74 24.300781 C 74 24.398438 74.199219 24.601562 74.199219 24.800781 Z M 73.699219 26 C 73.5 25.898438 73.199219 25.898438 73.199219 25.699219 C 73.199219 25.5 73.101562 25.398438 72.800781 25.398438 C 72.601562 25.398438 72.300781 25.5 72.101562 25.601562 C 72 25.5 71.898438 25.300781 71.898438 25.199219 C 72.101562 25.101562 72.398438 25.101562 72.601562 25 C 73 25 73.300781 25 73.300781 25.199219 C 73.398438 25.398438 73.699219 25.398438 73.699219 26 Z M 64.300781 17.5 C 64.300781 17.601562 64.199219 18 64.199219 18 L 63.800781 18.101562 L 64 17 C 64.101562 17.199219 64.199219 17.300781 64.300781 17.5 Z M 74.699219 27.898438 C 74.699219 28.101562 74.699219 28.398438 74.5 28.601562 L 74.199219 28.101562 C 74.300781 27.898438 74.300781 27.699219 74.5 27.398438 C 74.601562 27.5 74.699219 27.800781 74.699219 27.898438 Z M 73.398438 27.199219 C 73 27.199219 73.199219 26.398438 72.398438 26.398438 C 72.199219 26.398438 72.101562 26.699219 71.898438 26.699219 C 71.898438 26.601562 72 26.300781 72 26.300781 C 72 26.101562 72.101562 26 72.300781 25.898438 C 72.699219 25.898438 72.601562 26.101562 72.898438 26.199219 C 73.101562 26.300781 73.199219 26.300781 73.398438 26.398438 Z M 70 24.101562 C 69.5 23.800781 69.199219 23.300781 68.800781 22.800781 C 69.199219 22.800781 69.300781 23.199219 69.699219 23.300781 C 69.800781 23.398438 69.898438 23.5 70 23.601562 Z M 65.398438 20.101562 C 65.101562 20.101562 64.898438 19.898438 64.699219 19.601562 C 64.699219 19.398438 64.699219 19.199219 64.699219 19 C 64.800781 19.199219 64.800781 19.300781 64.898438 19.398438 C 65.101562 19.300781 65.101562 19.601562 65.199219 19.601562 C 65.300781 19.800781 65.398438 20 65.398438 20.101562 Z M 74.300781 29.300781 C 74.199219 29.398438 74.199219 29.5 74.101562 29.601562 C 74.101562 29.300781 73.800781 29.199219 73.601562 28.699219 L 73.800781 28.300781 C 74 28.398438 74.199219 28.601562 74.199219 28.800781 C 74.199219 28.898438 74.199219 29 74.199219 29 C 74.199219 29.199219 74.300781 29.199219 74.300781 29.300781 Z M 73.199219 27.800781 C 73.199219 28 73.101562 28.199219 73.101562 28.300781 C 72.699219 28.199219 72.699219 27.800781 72.699219 27.800781 C 72.398438 27.5 72.101562 27.699219 71.800781 27.699219 C 71.699219 27.398438 71.898438 27.398438 71.898438 27.199219 C 72.101562 27.199219 72.199219 27.101562 72.398438 27.199219 C 72.699219 27.101562 72.800781 27.398438 73.101562 27.398438 C 73.101562 27.5 73.199219 27.601562 73.199219 27.800781 Z M 70.5 25.5 C 70.5 25.699219 70.398438 25.898438 70.398438 26.101562 C 70.300781 25.800781 70.101562 25.398438 70 25.101562 C 70 25 69.898438 25 70.101562 25 C 70.199219 25 70.398438 25 70.398438 25.101562 C 70.398438 25.300781 70.5 25.398438 70.5 25.5 Z M 65.800781 21.300781 C 65.699219 21.5 65.5 21.300781 65.5 21.300781 L 65 21.300781 C 64.898438 21.199219 64.898438 21.101562 64.898438 21 C 65.101562 20.898438 65.300781 20.800781 65.398438 20.898438 C 65.5 21.199219 65.601562 21.300781 65.800781 21.300781 Z M 67 22.5 C 66.699219 22.699219 66.300781 22.699219 66.101562 22.398438 L 66.5 22.199219 C 66.601562 22.398438 66.800781 22.5 67 22.5 Z M 69.800781 25.601562 C 69.800781 25.898438 69.699219 26.300781 69.699219 26.699219 C 69.5 26.699219 69.5 26.601562 69.5 26.398438 C 69.398438 26.101562 69.300781 25.800781 69.199219 25.5 C 69.101562 25.101562 68.800781 24.699219 68.601562 24.199219 C 68.5 24 68.300781 23.898438 68.101562 23.699219 C 68.398438 23.699219 68.699219 23.699219 68.898438 23.898438 C 68.898438 24 69 24.101562 69.101562 24.199219 C 69.5 24.199219 69.398438 24.699219 69.699219 24.898438 C 69.5 25 69.5 25.101562 69.398438 25.300781 C 69.5 25.398438 69.699219 25.398438 69.800781 25.601562 Z M 67.601562 24 C 67.601562 24.199219 67.5 24.199219 67.398438 24.300781 C 67.300781 24.199219 67.199219 24.101562 67.199219 23.898438 C 67.199219 23.699219 67.199219 23.601562 67.300781 23.398438 C 67.398438 23.601562 67.601562 23.800781 67.601562 24 Z M 72.699219 28.898438 C 72.699219 28.898438 72.601562 29 72.601562 29 C 72.398438 28.898438 72.101562 28.800781 71.898438 28.800781 C 71.898438 28.601562 71.699219 28.300781 71.601562 28.300781 C 71.300781 28.300781 71.300781 28.5 71.101562 28.5 L 71.601562 28 C 71.699219 27.898438 71.699219 27.898438 71.800781 27.898438 C 72 28 72 28.101562 72.199219 28.101562 C 72.199219 28.199219 72.199219 28.300781 72.101562 28.398438 C 72.300781 28.5 72.398438 28.300781 72.5 28.5 C 72.601562 28.699219 72.699219 28.699219 72.699219 28.898438 Z M 68.300781 25.199219 C 68.300781 25.300781 68.101562 25.398438 68.101562 25.398438 C 68 25.300781 67.800781 25.101562 67.800781 24.898438 C 67.800781 24.699219 67.898438 24.5 68 24.300781 C 68.101562 24.300781 68.101562 24.398438 68.199219 24.398438 C 68.300781 24.5 68.199219 24.601562 68.300781 24.800781 C 68.300781 24.898438 68.5 25.101562 68.300781 25.199219 Z M 64.199219 20 C 63.5 19.601562 62.800781 19.398438 62 19.300781 C 62 19.398438 62 19.5 62 19.699219 C 62.601562 20 63.199219 20.300781 63.800781 20.800781 L 63.800781 21.300781 C 63.300781 20.800781 62.699219 20.199219 62 20.101562 C 62 20.199219 61.699219 20.300781 61.699219 20.5 C 61.300781 20.199219 60.898438 20 60.398438 19.898438 C 60.199219 19.898438 60.101562 19.300781 60.101562 19.300781 C 60.398438 19.199219 60.601562 19 60.601562 18.800781 L 60.800781 18.800781 C 61 18.800781 61 18.699219 61 18.5 C 61 18.199219 60.300781 18.199219 60 18.199219 C 59.699219 18.199219 59.398438 18.199219 59.101562 18.398438 C 59 18.398438 59.101562 18.601562 59.101562 18.699219 C 59.101562 18.800781 59.300781 18.898438 59.300781 18.898438 C 59.398438 18.898438 59.5 18.800781 59.601562 18.800781 C 59.5 19.101562 59.699219 19.300781 60 19.5 L 59.898438 20 C 59.199219 20 58.800781 20.300781 58.300781 20.5 C 58.101562 20.398438 58 20.199219 57.898438 20.101562 C 57.199219 20.300781 56.101562 21.199219 56.101562 21.199219 L 56.101562 20.800781 C 56.601562 20.398438 57.199219 20.101562 57.699219 19.898438 L 57.699219 19.5 C 57.5 19.398438 57.300781 19.5 57 19.5 C 56.5 19.601562 56.101562 19.699219 55.699219 20 C 55.699219 19.898438 55.699219 19.800781 55.601562 19.601562 C 56.199219 19.300781 56.898438 19 57.601562 19.101562 L 57.601562 18.898438 C 57.5 18.800781 57.5 18.601562 57.398438 18.601562 C 57.101562 18.300781 56.699219 17.800781 56.699219 17.5 L 56.898438 17.398438 C 56.800781 17.101562 56.699219 16.300781 56.898438 16 C 56.601562 15.898438 56.398438 15.601562 56.199219 15.300781 C 56.101562 15.101562 56 14.800781 55.898438 14.601562 C 56.101562 14.300781 56.199219 14.199219 56.300781 13.800781 C 56.398438 13.800781 56.5 13.699219 56.601562 13.601562 C 56.898438 13.5 57 13.300781 57.398438 13.398438 C 57.601562 13.398438 57.800781 13.5 58 13.601562 C 58 13.699219 58 13.800781 58.101562 13.898438 C 58.398438 13.898438 58.398438 14.199219 58.601562 14.5 C 58.699219 14.5 58.898438 14.601562 59 14.601562 C 59.300781 14.699219 59.601562 14.699219 59.699219 14.800781 C 60.101562 14.601562 60.601562 14.5 61.101562 14.601562 C 61.199219 14.398438 61.300781 14.199219 61.300781 14 C 61.398438 14.199219 61.398438 14 61.5 14 C 61.699219 13.800781 61.898438 13.601562 62.300781 13.699219 C 62.5 13.898438 62.898438 13.800781 63.101562 14 C 63.300781 14.199219 63.398438 14.5 63.5 14.800781 C 63.300781 15.101562 63.5 15.601562 63.199219 15.699219 L 62.898438 16 C 62.800781 16 62.800781 16.101562 62.601562 16.101562 C 62.699219 16.5 62.699219 17 62.5 17.398438 C 62.601562 17.398438 62.800781 17.398438 62.800781 17.199219 C 62.898438 17.300781 62.800781 17.398438 62.800781 17.398438 L 62.800781 17.601562 C 62.800781 17.898438 62.601562 18.199219 62.398438 18.398438 C 62.300781 18.699219 62 19.199219 61.699219 19.199219 L 61.699219 19 C 62.5 19 63.199219 19.199219 63.898438 19.601562 Z M 66.398438 23.398438 L 66.101562 23.5 C 65.699219 23.5 65.300781 23.398438 65 23.101562 C 65.199219 23.101562 65.5 22.800781 65.5 22.800781 C 65.699219 23.101562 66 23.300781 66.398438 23.398438 Z M 64.898438 22.101562 C 64.601562 22.101562 64.199219 22.300781 64 21.898438 C 64.101562 21.800781 64.199219 21.699219 64.300781 21.601562 Z M 69.300781 27.199219 C 69.300781 27.5 69 27.800781 68.898438 28 C 69 27.699219 69 27.199219 68.898438 27.199219 C 68.800781 27.101562 68.601562 27.199219 68.601562 27.101562 C 68.601562 26.898438 68.699219 26.699219 68.699219 26.601562 C 68.699219 26.398438 68.5 26.300781 68.5 26.199219 C 68.5 25.898438 68.898438 25.800781 69 25.601562 C 69 25.800781 69.101562 26.101562 69.101562 26.300781 C 69.101562 26.398438 69.300781 26.699219 69.101562 27 C 68.898438 27.101562 69.300781 27 69.300781 27.199219 Z M 68 26.601562 C 68 26.898438 67.800781 27.199219 67.699219 27.5 C 67.699219 27.199219 67.601562 26.898438 67.398438 26.699219 C 67.398438 26.601562 67.601562 26.601562 67.5 26.398438 C 67.5 26.398438 67.199219 26.199219 67.199219 26 C 67.199219 25.800781 67.398438 25.601562 67.5 25.5 C 67.5 25.398438 67.699219 25.601562 67.699219 25.898438 C 67.699219 26 67.699219 26.101562 67.601562 26.199219 C 67.601562 26.398438 68 26.398438 68 26.601562 Z M 63.601562 22.800781 C 63.300781 22.898438 63.101562 22.601562 62.800781 22.5 C 62.699219 22.199219 62.699219 22 62.601562 21.699219 C 62.800781 21.898438 63.300781 21.898438 63.199219 22.398438 C 63.199219 22.398438 63.398438 22.5 63.601562 22.800781 Z M 65.101562 24.300781 C 64.800781 24.300781 64.5 24.300781 64.300781 24.101562 C 64.101562 24 63.898438 23.800781 63.699219 23.699219 C 63.898438 23.601562 64.101562 23.5 64.300781 23.5 C 64.5 23.699219 64.699219 24.101562 65.101562 24.300781 Z M 56 15.898438 L 55.601562 16 L 55.699219 15.699219 C 55.800781 15.5 55.898438 15.398438 56 15.199219 Z M 62.898438 23.5 C 62.699219 23.601562 62.300781 23.699219 62.199219 23.398438 C 62 23 62 22.5 62.199219 22.101562 C 62.300781 22.398438 62.398438 22.699219 62.398438 23 C 62.5 23.199219 62.800781 23.300781 62.898438 23.5 Z M 61.398438 20.5 C 61.300781 20.800781 61.199219 21.300781 60.898438 21.5 C 60.898438 21.300781 60.800781 21.101562 60.699219 21 C 60.601562 21 60.699219 21.199219 60.601562 21.199219 C 60.601562 21.398438 60.5 21.601562 60.5 21.699219 C 60.300781 21.800781 60.101562 21.800781 60 21.800781 L 60 21.601562 C 60 21.5 59.898438 21.300781 59.898438 21.199219 L 59.800781 21.101562 C 59.601562 21.199219 59.601562 21.300781 59.601562 21.398438 C 59.5 21.5 59.5 21.601562 59.398438 21.800781 C 59.199219 21.800781 59 21.699219 58.898438 21.601562 L 58.898438 21.101562 C 58.898438 21 58.898438 21 58.800781 21 L 58.5 21.300781 C 58.300781 21.101562 58.199219 20.699219 58.199219 20.398438 C 59.101562 19.898438 60.199219 20.101562 60.800781 20.300781 C 61.199219 20.398438 61.300781 20.398438 61.398438 20.5 Z M 64.199219 24.898438 L 64 24.898438 C 63.398438 25.101562 62.898438 24.699219 62.398438 24.398438 C 62.699219 24.300781 63 24.199219 63.398438 24.199219 L 63.601562 24.5 C 63.800781 24.601562 64 24.699219 64.199219 24.898438 Z M 56.101562 16.699219 L 55.800781 17 C 55.898438 17.5 55.601562 17.898438 55.601562 18.398438 L 55.300781 17.5 C 55.398438 17.300781 55.5 17 55.601562 16.800781 Z M 61.699219 23.699219 C 61.398438 23.5 60.898438 23.5 61 23.199219 C 61.101562 23 61.199219 22.898438 61.398438 22.800781 C 61.398438 23 61.5 23.398438 61.699219 23.699219 Z M 66.699219 29.199219 C 66.5 29 66.5 28.898438 66.398438 28.898438 C 66.601562 28.300781 66.199219 27.800781 66.101562 27.300781 L 66.101562 27.101562 C 66.300781 27.398438 66.699219 27.601562 66.601562 27.898438 C 66.601562 28.398438 66.699219 28.800781 66.699219 29.199219 Z M 65.398438 27.199219 C 65.101562 27.199219 64.898438 27.199219 64.699219 26.898438 C 64.601562 26.898438 64.601562 26.699219 64.5 26.800781 C 64.199219 27 64 26.601562 63.601562 26.699219 C 63.398438 26.898438 63.199219 27 63 27 C 63 26.800781 63.101562 26.601562 63.300781 26.601562 C 63.601562 26.699219 63.898438 26 64.199219 26.398438 C 64.300781 26.398438 64.5 26.5 64.601562 26.5 C 65.101562 26.601562 65.199219 26.898438 65.398438 27.199219 Z M 60.5 22.800781 C 60.5 23.199219 60.398438 23.699219 60.101562 23.800781 L 60 23.300781 C 60.101562 23.199219 60.300781 23 60.5 22.800781 Z M 62.300781 25.199219 C 62.101562 25.300781 61.898438 25.398438 61.699219 25.398438 C 61.398438 25.101562 61.101562 24.800781 60.800781 24.398438 L 61.699219 24.601562 C 61.898438 24.699219 62.101562 25 62.300781 25.199219 Z M 65.5 28.300781 C 65.300781 28.101562 65 28.101562 64.800781 27.898438 C 64.601562 27.898438 64.398438 27.800781 64.199219 27.800781 C 64 27.800781 63.699219 27.898438 63.5 27.898438 C 63.398438 27.898438 63.5 27.800781 63.398438 27.800781 C 63.101562 27.898438 62.699219 27.898438 62.398438 28.199219 L 62.699219 27.5 C 62.898438 27.5 63 27.398438 63.199219 27.398438 C 63.398438 27.398438 63.601562 27.300781 63.699219 27.300781 L 63.699219 27.398438 C 64.300781 27.398438 65 27.300781 65.398438 27.800781 Z M 59.300781 23.699219 C 59 23.398438 58.699219 23.101562 58.699219 22.800781 C 58.898438 22.800781 59 22.800781 59.199219 22.898438 C 59.199219 23.101562 59.300781 23.398438 59.300781 23.699219 Z M 58.300781 22.101562 L 58.101562 22.800781 C 57.898438 22.5 57.800781 22.199219 57.699219 21.800781 Z M 66.101562 29.398438 C 66 29.601562 65.898438 29.800781 65.898438 30 C 65.800781 29.699219 65.699219 29.199219 65.300781 29.199219 C 65.300781 29 65.101562 28.800781 65 28.800781 L 64.601562 28.699219 C 64.699219 28.898438 65 28.898438 64.800781 29.199219 C 65 29.398438 65.199219 29.398438 65.300781 29.601562 C 65.398438 29.800781 65.300781 30 65.398438 30.101562 L 65.101562 30.300781 C 65.101562 30 65.199219 29.5 64.800781 29.398438 C 64.5 29.5 64.398438 29.101562 64.199219 29 C 64.101562 29 64.101562 28.699219 63.898438 28.800781 C 63.601562 29 63.300781 28.800781 63 29 L 63.300781 28.601562 C 63.5 28.398438 63.699219 28.5 64 28.398438 L 64.398438 28.300781 C 64.800781 28.300781 65.199219 28.5 65.601562 28.699219 C 65.800781 28.800781 65.898438 29 65.898438 29.199219 C 65.800781 29.199219 66.101562 29.199219 66.101562 29.398438 Z M 61.800781 26.898438 L 61.699219 26.898438 C 61.5 26.800781 61.300781 26.800781 61.199219 26.601562 C 61.199219 26.5 61.101562 26.398438 61.101562 26.300781 L 61.5 26.300781 Z M 57.601562 23 C 57.300781 22.898438 57 22.601562 56.699219 22.300781 C 56.601562 22.101562 56.601562 21.898438 56.601562 21.699219 C 56.800781 21.699219 56.898438 21.800781 57 22 C 57.300781 22.300781 57.5 22.5 57.601562 23 Z M 60.199219 24.898438 C 60.199219 25.199219 60 25.300781 59.699219 25.699219 C 59.5 25.800781 59.199219 25.898438 58.898438 26 C 59 25.800781 59.101562 25.800781 59.199219 25.601562 C 59.300781 25.398438 59.5 25.199219 59.601562 25 C 59.800781 24.898438 60 24.898438 60.199219 24.898438 Z M 64.199219 30.101562 L 64 30.300781 C 63.800781 30.101562 63.898438 29.699219 63.699219 29.601562 C 63.398438 29.601562 63.199219 29.300781 63.101562 29.300781 L 63.300781 29.199219 C 63.398438 29.199219 63.398438 29.199219 63.5 29.199219 C 63.601562 29.300781 63.699219 29.398438 63.699219 29.5 C 63.800781 29.699219 64 29.5 64.101562 29.699219 C 64.199219 29.800781 64.199219 30 64.199219 30.101562 Z M 59.199219 24.398438 C 59 24.699219 58.898438 25 58.5 25.101562 C 58.199219 25.199219 58 25.199219 57.699219 25.101562 C 57.898438 25 58 24.898438 58.199219 24.800781 L 58.601562 24.398438 Z M 60.300781 26.898438 C 60.101562 27 59.898438 27.101562 59.601562 27 L 59.300781 26.601562 L 60.101562 26.601562 Z M 56.398438 22.800781 C 56.101562 23.101562 55.898438 23.199219 55.699219 23.5 C 55.699219 23.300781 55.699219 23.199219 55.601562 23.101562 C 55.601562 22.898438 55.699219 22.800781 55.898438 22.699219 C 56.101562 22.800781 56.199219 22.800781 56.398438 22.800781 Z M 57 23.601562 C 57 23.898438 56.898438 24.199219 56.699219 24.398438 C 56.601562 24.5 56.601562 24.5 56.5 24.601562 C 56.5 24.300781 56.699219 24 56.699219 23.699219 C 56.699219 23.601562 56.898438 23.5 57 23.601562 Z M 57.699219 24.300781 L 57.5 25.101562 C 57.199219 25.300781 56.898438 25.199219 56.601562 25.199219 C 57 25.101562 57.300781 24.601562 57.5 24.300781 C 57.601562 24.199219 57.601562 24.300781 57.699219 24.300781 Z M 58 27 C 58 27.199219 57.898438 27.800781 57.898438 27.800781 C 57.800781 27.398438 57.5 27 57.199219 27 C 57 26.898438 56.898438 26.699219 56.800781 26.5 C 56.601562 26.300781 56.5 26.5 56.300781 26.300781 C 56.101562 26.300781 55.800781 26.300781 55.601562 26.5 L 55.601562 26.300781 L 56 25.898438 C 56.398438 26 56.800781 25.898438 56.898438 26.199219 C 57.101562 26.300781 57.300781 26.5 57.5 26.601562 L 57.5 26.800781 C 57.699219 26.898438 57.898438 27 58 27 Z M 57.699219 28.699219 L 57.398438 29 C 57.300781 28.898438 57.398438 28.601562 57.199219 28.398438 C 57.199219 28.300781 57.300781 28.199219 57.300781 28.199219 C 57.199219 28.101562 56.601562 27.898438 56.601562 27.898438 C 56.398438 27.699219 56.101562 27.601562 55.898438 27.398438 C 55.699219 27.300781 55.5 27.5 55.199219 27.5 L 55.199219 27.398438 C 55.300781 27.199219 55.300781 26.898438 55.601562 26.898438 C 55.800781 26.898438 56 26.898438 56.101562 27.101562 C 56.300781 27.101562 56.398438 27.300781 56.601562 27.398438 C 56.800781 27.601562 57 27.800781 57.199219 27.898438 C 57.199219 28 57.199219 28.199219 57.398438 28.199219 C 57.699219 28.199219 57.601562 28.5 57.699219 28.699219 Z M 56.898438 29.5 L 56.800781 30 L 56.398438 29 C 56 28.601562 55.5 28.601562 55.199219 28.300781 C 55 28.199219 55 28.398438 54.898438 28.300781 C 54.898438 28.101562 54.898438 28 55.101562 27.898438 L 55.398438 27.898438 L 55.699219 28.101562 C 55.898438 28.300781 56.199219 28.300781 56.199219 28.601562 C 56.199219 28.699219 56.101562 28.699219 56.300781 28.898438 L 56.800781 29 Z M 55.5 30 C 55.5 30.398438 54.800781 31 54.800781 31 C 54.800781 30.699219 55 30.398438 55 30.101562 C 54.898438 30 54.699219 29.898438 54.601562 29.898438 C 54.398438 30 54.398438 30.101562 54.398438 30.300781 C 54.199219 30.601562 53.898438 31 53.898438 31.300781 C 53.898438 31.300781 53.800781 31.300781 53.800781 31.199219 C 53.800781 30.699219 53.898438 29.699219 54.199219 29.398438 C 54.398438 29.199219 54.699219 29 55 29 L 55.300781 29.101562 L 55.101562 29.398438 C 55.101562 29.5 55.5 29.699219 55.5 30 Z M 53.5 29.699219 C 53.5 29.898438 53.398438 30.101562 53.300781 30.300781 C 53.199219 30.101562 53.101562 29.800781 52.800781 29.800781 C 52.601562 30.199219 52.5 30.398438 52.699219 31 C 52.601562 31.101562 52.398438 31.300781 52.199219 31.300781 C 52.101562 31 52.101562 30.800781 52.101562 30.5 C 52.101562 30.101562 52.199219 29.800781 52.300781 29.398438 C 52.5 29.199219 52.601562 29 52.699219 28.800781 L 53.300781 28.800781 C 53 28.800781 53 29 53 29.199219 C 53.300781 29.398438 53.5 29.398438 53.5 29.699219 Z M 52.199219 30.300781 C 52.101562 30.300781 52 30.101562 51.800781 30.101562 C 51.601562 30.398438 51.800781 30.601562 51.800781 31 C 51.800781 31.101562 51.800781 31.199219 51.699219 31.300781 C 51.601562 31.300781 51.398438 31.101562 51.398438 30.898438 L 51.398438 30 L 51.898438 29.398438 C 52.101562 29.699219 52.300781 30 52.199219 30.300781 Z M 63.300781 15.300781 C 63.398438 15 63.398438 14.601562 63.199219 14.300781 C 63.101562 14.101562 62.800781 14 62.5 13.800781 L 62.101562 14 C 61.898438 14.101562 61.800781 14.300781 61.800781 14.601562 C 62.199219 14.800781 62.5 15.101562 62.699219 15.5 L 62.898438 15.5 C 63.101562 15.300781 63.199219 15.398438 63.300781 15.300781 Z M 61.5 15.601562 C 61.5 15.398438 61.398438 15.398438 61.398438 15.398438 C 61.101562 15.398438 61.101562 15 60.898438 15.101562 C 60.800781 15.101562 60.699219 15 60.5 15.101562 C 60.5 15.199219 60.5 15.199219 60.601562 15.199219 C 60.898438 15.199219 60.800781 15.601562 61 15.601562 Z M 62.300781 16.300781 C 62.300781 16.300781 62.398438 16.300781 62.300781 16.300781 L 61.199219 16 C 61.101562 16.199219 60.800781 16.199219 60.800781 16.300781 L 60.699219 16.300781 C 60.800781 16.800781 60.800781 17.199219 60.800781 17.699219 C 61.101562 17.699219 61.199219 17.898438 61.199219 18.199219 C 61.398438 18.300781 61.601562 18.398438 61.800781 18.5 C 61.898438 18.398438 61.898438 18.300781 62 18.101562 C 61.800781 17.800781 61.300781 18 61.300781 17.5 L 61 17.398438 C 61 17.101562 61 16.800781 60.898438 16.5 L 61 16.5 C 61 16.5 61.101562 16.601562 61.199219 16.699219 C 61.398438 16.699219 61.601562 16.699219 61.800781 16.601562 C 61.898438 16.5 61.898438 16.300781 62 16.300781 C 62.199219 16.398438 62.300781 16.398438 62.300781 16.300781 Z M 59.699219 15.101562 C 59.601562 15 59.300781 15.199219 59.101562 15.199219 C 58.898438 15.199219 58.699219 15.398438 58.699219 15.601562 L 59.300781 15.601562 C 59.398438 15.398438 59.5 15.300781 59.699219 15.101562 Z M 58.5 14.5 C 58.398438 14 57.800781 13.898438 57.601562 13.699219 L 57.398438 13.699219 C 57 13.898438 56.898438 14.300781 56.800781 14.699219 C 56.898438 15.199219 57.300781 14.898438 57.5 15.199219 C 57.699219 14.898438 58.101562 14.699219 58.5 14.5 Z M 61.699219 19.5 L 61.699219 19.199219 L 61.199219 19.199219 L 61.101562 19.300781 Z M 59.199219 16.398438 C 59.199219 16.300781 59.101562 16.199219 58.898438 16.101562 L 57.601562 16.101562 C 57.601562 16.300781 57.699219 16.398438 57.898438 16.398438 C 57.898438 16.601562 58.101562 16.699219 58.101562 16.699219 C 58.300781 16.800781 58.300781 16.800781 58.5 16.699219 C 58.699219 16.800781 58.699219 16.601562 58.800781 16.699219 C 58.800781 16.898438 58.800781 17.199219 58.699219 17.398438 C 58.601562 17.800781 58.300781 17.699219 58 17.898438 C 58 18.101562 57.800781 18.300781 58 18.5 C 58.199219 18.398438 58.398438 18.300781 58.5 18.199219 C 58.5 18 58.699219 17.898438 58.898438 17.800781 C 59.101562 17.300781 59.199219 16.898438 59.199219 16.398438 Z M 58.800781 19.199219 C 58.699219 19 58.398438 19.199219 58.101562 19.101562 C 58.101562 19.199219 58.101562 19.398438 58.300781 19.398438 C 58.398438 19.300781 58.601562 19.199219 58.800781 19.199219 Z M 58.800781 19.199219 "/>
</g>
</svg>
